<?xml version="1.0" encoding="UTF-8"?><!DOCTYPE svg PUBLIC "-//W3C//DTD SVG 1.1//EN" "http://www.w3.org/Graphics/SVG/1.1/DTD/svg11.dtd"><svg xmlns="http://www.w3.org/2000/svg" xmlns:xlink="http://www.w3.org/1999/xlink"><symbol id="circle" viewBox="0 0 13 13"><g fill="none"><rect width="13" height="13" rx="6.5" fill="#070707"/></g></symbol><symbol id="group1" viewBox="0 0 79 90"><g fill="none"><path d="M0 0l7.195 81L39.5 90l32.294-8.994L79 0H0z" fill="#FF5722"/><path d="M63.398 26.489H25.534l.903 10.175h36.058l-2.714 30.51-20.28 5.642-.018.006-20.269-5.648-1.416-15.958h9.931l.74 8.28 11.02 2.987.011-.005 11.032-2.987 1.151-12.887H17.392L14.716 16.56h49.561l-.88 9.928z" fill="#FAFAFA"/></g></symbol><symbol id="group2" viewBox="0 0 79 90"><g fill="none"><path d="M0 0l7.195 81L39.5 90l32.294-8.994L79 0H0z" fill="#2196F3"/><path d="M63.617 26.489l-.908 10.175-2.742 30.505L39.5 72.81l-.017.005-20.455-5.647L17.6 51.216h10.022l.744 8.274 11.123 2.993.005-.006 11.14-2.992 1.517-13.787-35.03.096-.994-9.428 36.865-.433.745-10.091-38.597.107-.65-9.389H64.51l-.892 9.929z" fill="#FAFAFA"/></g></symbol><symbol id="group3" viewBox="0 0 68 90"><g fill="none"><path d="M64.072 90H3.928C1.758 90 0 88.23 0 86.046V3.954C0 1.77 1.759 0 3.928 0H51.57L68 15.724v70.322C68 88.23 66.24 90 64.071 90z" fill="#F4F4F4"/><path d="M51.57 0h-7.063l16.429 15.724v70.322c0 2.184-1.758 3.954-3.928 3.954h7.064C66.24 90 68 88.23 68 86.046V15.724L51.57 0z" fill="#E8E8E8"/><path d="M60.936 8.963L51.57 0H3.928C1.758 0 0 1.77 0 3.954v5.01h60.936z" fill="#F6D867"/><path d="M46.413 8.963h14.523L51.57 0h-5.157v8.963z" fill="#E0C55E"/><path d="M51.57 0v11.77c0 2.184 1.759 3.954 3.928 3.954H68L51.57 0z" fill="#DEDCDD"/><path d="M0 64.956v21.09C0 88.23 1.759 90 3.928 90h60.144C66.242 90 68 88.23 68 86.046v-21.09H0z" fill="#F6D867"/><path d="M60.936 86.045c0 2.184-1.758 3.954-3.928 3.954h7.063C66.239 90 68 88.232 68 86.045v-21.09h-7.063v21.09z" fill="#E0C55E"/><path d="M27.967 83.676c2.525 0 4.571-2.02 4.571-4.513v-6.619c0-.596-.48-1.08-1.072-1.08-.592 0-1.073.484-1.073 1.08v6.619c0 2.785-3.952 3.418-4.747.659a1.069 1.069 0 00-1.026-.776c-.716 0-1.227.701-1.023 1.39a4.533 4.533 0 004.37 3.24zM39.679 81.605c-1.175 0-2.329-.438-3.35-.96-.69-.354-1.507.154-1.507.932 0 .392.215.735.533.914 4.006 2.237 9.089 1.181 9.089-2.425 0-2.672-2.603-3.221-4.836-3.628-1.48-.27-2.48-.407-2.484-1.388-.003-.825.708-1.692 2.502-1.692 2.072 0 3.02 1.016 3.666 1.016 1.066 0 1.434-1.447.486-1.955-4.756-2.553-8.794-.434-8.799 2.72-.004 2.874 2.8 3.299 4.629 3.6 1.689.277 2.69.46 2.698 1.396.011 1.24-1.783 1.47-2.627 1.47z" fill="#495663"/></g></symbol><symbol id="group4" viewBox="0 0 60 90"><g fill="none"><path d="M14.995 90c8.28 0 14.996-6.714 14.996-14.993V60.013H14.995C6.715 60.013 0 66.728 0 75.007s6.716 14.994 14.995 14.994z" fill="#0ACF83"/><path d="M0 45.001c0-8.278 6.716-14.993 14.995-14.993h14.996v30.006H14.995C6.715 59.995 0 53.28 0 45z" fill="#A259FF"/><path d="M0 14.994C0 6.715 6.716 0 14.995 0h14.996v30.006H14.995C6.715 30.006 0 23.273 0 14.994z" fill="#F24E1E"/><path d="M30.01 0h14.995C53.285 0 60 6.715 60 14.994s-6.716 14.994-14.995 14.994H30.009V0z" fill="#FF7262"/><path d="M60 45.001c0 8.28-6.716 14.994-14.995 14.994-8.28 0-14.996-6.715-14.996-14.994 0-8.278 6.716-14.993 14.996-14.993C53.285 30.008 60 36.723 60 45z" fill="#1ABCFE"/></g></symbol><symbol id="Vector" viewBox="0 0 15 15"><g fill="none"><path d="M2 6.75l3.913 6.02a.7.7 0 001.2-.044L13.425 1.25" stroke="#070707" stroke-width="2.5" stroke-linecap="round"/></g></symbol></svg>